<?xml version="1.0" standalone="no"?>
<!DOCTYPE svg PUBLIC "-//W3C//DTD SVG 20010904//EN"
 "http://www.w3.org/TR/2001/REC-SVG-20010904/DTD/svg10.dtd">
<svg version="1.0" xmlns="http://www.w3.org/2000/svg"
 width="477.000000pt" height="477.000000pt" viewBox="0 0 477.000000 477.000000"
 preserveAspectRatio="xMidYMid meet">
<metadata>
Created by potrace 1.15, written by Peter Selinger 2001-2017
</metadata>
<g transform="translate(0.000000,477.000000) scale(0.100000,-0.100000)"
fill="#000000" stroke="none">
<path d="M3618 4530 c-45 -13 -83 -46 -107 -92 -14 -25 -124 -443 -270 -1018
l-246 -975 -1427 -5 -1426 -5 -44 -30 c-146 -103 -112 -326 57 -374 29 -9 440
-11 1550 -9 1509 3 1510 3 1550 24 84 44 74 11 346 1085 137 541 249 985 249
986 0 1 175 3 388 5 l389 3 48 30 c71 44 98 99 93 192 -3 62 -7 77 -34 110
-16 21 -50 48 -74 61 -44 22 -45 22 -530 21 -267 0 -497 -4 -512 -9z"/>
<path d="M605 1554 c-157 -33 -323 -148 -413 -286 -173 -265 -136 -613 89
-837 128 -129 253 -182 445 -189 145 -5 211 9 331 69 323 162 452 554 291 889
-33 69 -57 101 -127 171 -70 70 -102 94 -171 127 -143 68 -294 87 -445 56z
m269 -438 c190 -111 152 -390 -60 -452 -48 -14 -66 -15 -110 -5 -100 23 -175
100 -195 202 -24 114 45 229 165 276 50 20 148 10 200 -21z"/>
<path d="M2504 1556 c-85 -20 -169 -55 -237 -100 -122 -81 -234 -239 -272
-386 -23 -86 -24 -244 -2 -330 62 -237 255 -430 487 -484 84 -20 249 -20 325
-1 155 39 303 144 391 277 246 369 67 875 -356 1009 -85 27 -252 34 -336 15z
m219 -420 c122 -44 192 -178 157 -301 -8 -28 -30 -65 -56 -94 -101 -112 -249
-117 -354 -11 -80 79 -98 184 -49 281 23 46 98 113 141 126 46 15 116 14 161
-1z"/>
</g>
</svg>
